<svg width="100%" height="100%" viewBox="0 0 2084 2076" xmlns="http://www.w3.org/2000/svg" xmlns:xlink="http://www.w3.org/1999/xlink" style="fill-rule:evenodd;clip-rule:evenodd;stroke-linejoin:round;stroke-miterlimit:2"><g transform="matrix(1,0,0,1,-416.666667,-416.666667)"><g transform="matrix(4.166667,0,0,4.166667,0,0)"><g transform="matrix(1,0,0,1,600,348.169)"><path d="M0 1.831c0-138.071-111.929-250-250-250s-250 111.929-250 250c0 117.245 80.715 215.622 189.606 242.638V78.227h-51.552V1.831h51.552V-31.088c0-85.092 38.508-124.532 122.048-124.532C-172.508-155.62-145.179-152.515-133.999-149.409v69.254C-139.9-80.776-150.148-81.087-162.881-81.087c-40.993.0-56.832 15.528-56.832 55.9V1.831h81.659l-14.028 76.396h-67.631V250C-95.927 235.049.0 129.649.0 1.831" style="fill:#0866ff;fill-rule:nonzero"/></g></g></g></svg>