<svg width="100%" height="100%" viewBox="0 0 65 65" xmlns="http://www.w3.org/2000/svg" xmlns:xlink="http://www.w3.org/1999/xlink" style="fill-rule:evenodd;clip-rule:evenodd;stroke-linejoin:round;stroke-miterlimit:2"><g transform="matrix(1,0,0,1,0.001,0.000412)"><g id="Path_2520" transform="matrix(1,0,0,1,-903.776,-57.355)"><path d="M958.98 112.559H949.38V97.525C949.38 93.94 949.316 89.325 944.387 89.325 939.387 89.325 938.622 93.231 938.622 97.264v15.294H929.022V81.642H938.238V85.867H938.367C940.244 82.658 943.746 80.735 947.46 80.873 957.19 80.873 958.984 87.273 958.984 95.599L958.98 112.559zM918.19 77.416S918.189 77.416 918.189 77.416C915.133 77.416 912.618 74.901 912.618 71.845S915.133 66.274 918.189 66.274C921.245 66.274 923.759 68.788 923.76 71.844V71.845C923.76 74.901 921.246 77.415 918.19 77.416M922.99 112.559H913.38V81.642H922.99v30.917zm40.776-55.2H908.556C905.964 57.33 903.807 59.437 903.775 62.029v55.439C903.806 120.061 905.963 122.171 908.556 122.143H963.766C966.364 122.176 968.53 120.066 968.566 117.468V62.025C968.529 59.428 966.363 57.321 963.766 57.355" style="fill:#0a66c2;fill-rule:nonzero"/></g></g></svg>