<svg width="100%" height="100%" viewBox="0 0 67 44" xmlns="http://www.w3.org/2000/svg" xmlns:xlink="http://www.w3.org/1999/xlink" style="fill-rule:evenodd;clip-rule:evenodd;stroke-linejoin:round;stroke-miterlimit:2"><g transform="matrix(1,0,0,1,-15.14,-57)"><g transform="matrix(0.966957,0,0,0.897959,-10.00087,5.816327)"><path d="M60.5 57C95 57 95 57 95 81.5S95.001 106 60.5 106C26 106 26 106 26 81.5S26 57 60.5 57zM85.783 67.587 84.542 68.274C77.127 72.573 69.713 76.821 62.333 81.131 61.248 81.904 59.833 81.904 58.748 81.131 51.31 76.721 43.826 72.385 36.342 68.1 35.983 67.887 35.6 67.737 35.182 67.55L35.066 67.775 50.614 80.869 37.851 95.063 37.99 95.25C38.257 95.063 38.547 94.9 38.802 94.701 43.501 91.09 48.212 87.491 52.888 83.843 53.385 83.342 54.167 83.342 54.664 83.843c1.612 1.249 3.307 2.286 4.919 3.473C60.132 87.834 60.961 87.834 61.509 87.316 63.157 86.067 64.886 85.005 66.522 83.768 66.99 83.287 67.736 83.287 68.204 83.768 72.95 87.516 77.719 91.102 82.476 94.763 82.79 95 83.114 95.213 83.439 95.45L83.532 95.3l-13.1-14.418L85.934 67.85 85.783 67.587z" style="fill:#8c2312"/></g></g></svg>