<svg width="100%" height="100%" viewBox="0 0 500 500" xmlns="http://www.w3.org/2000/svg" xmlns:xlink="http://www.w3.org/1999/xlink" style="fill-rule:evenodd;clip-rule:evenodd;stroke-linejoin:round;stroke-miterlimit:2"><path d="M249.995.0C111.928.0.0 111.932.0 250.005.0 355.287 65.078 445.359 157.197 482.21 154.077 453.779 156.247 426.449 162.497 400.208l24.999-107.812c-4.06-13.13-7.19-28.131-7.19-43.131.0-35.001 16.88-60.001 43.44-60.001 18.439.0 31.879 12.81 31.879 37.501.0 7.81-1.56 16.56-4.69 26.56l-10.94 35.941c-2.19 6.88-3.12 13.44-3.12 19.06.0 25.001 19.06 39.061 43.439 39.061 43.44.0 74.379-45.001 74.379-103.442.0-65.001-42.499-106.562-105.308-106.562-69.999.0-114.368 45.631-114.368 109.062.0 25.62 7.81 49.371 23.12 65.621-5 8.44-10.31 10-18.44 10-24.999.0-48.749-35.31-48.749-83.441.0-83.132 66.559-149.373 159.997-149.373 98.118.0 159.687 68.441 159.687 152.813S350.633 390.818 285.944 390.818c-25.629.0-48.129-10.94-63.748-30.631l-12.81 51.881c-6.87 26.871-17.26 52.291-33.82 76.662C199.076 496.05 224.086 5e2 250.005 5e2 388.072 5e2 5e2 388.068 5e2 249.995 5e2 111.922 388.062.0 249.995.0z" style="fill:#e61d27;fill-rule:nonzero"/></svg>