<svg width="256" height="256" viewBox="0 0 256 256" fill="none" xmlns="http://www.w3.org/2000/svg"><path d="M102.474 166.037l66.385-38.204-66.385-38.0176V166.037zM28.0498 211.474C17.0166 208.505 8.41418 199.79 5.23549 189.033.0 169.19.0 127.833.0 127.833S0 86.4775 5.23549 66.8197C8.41418 55.8775 17.0166 47.346 28.0498 44.379 47.8712 39 127.906 39 127.906 39s80.223.0 100.044 5.379c11.22 2.967 19.635 11.4985 22.628 22.4407C256 86.4775 256 127.833 256 127.833s0 41.357-5.422 61.2c-2.993 10.757-11.408 19.472-22.628 22.441C208.129 216.851 127.906 216.851 127.906 216.851S47.8712 216.851 28.0498 211.474z" fill="#EE1D3A" style="fill:#ee1d3a;fill:color(display-p3 .9333 .1137 .2275);fill-opacity:1"/></svg>