<?xml version="1.0" encoding="UTF-8" standalone="no"?>
<!DOCTYPE svg PUBLIC "-//W3C//DTD SVG 1.1//EN" "http://www.w3.org/Graphics/SVG/1.1/DTD/svg11.dtd">
<svg width="100%" height="100%" viewBox="0 0 67 44" version="1.1" xmlns="http://www.w3.org/2000/svg" xmlns:xlink="http://www.w3.org/1999/xlink" xml:space="preserve" xmlns:serif="http://www.serif.com/" style="fill-rule:evenodd;clip-rule:evenodd;stroke-linejoin:round;stroke-miterlimit:2;">
    <g transform="matrix(1,0,0,1,-15.14,-57)">
        <g transform="matrix(0.966957,0,0,0.897959,-10.00087,5.816327)">
            <path d="M60.5,57C95,57 95,57 95,81.5C95,106 95.001,106 60.5,106C26,106 26,106 26,81.5C26,57 26,57 60.5,57ZM85.783,67.587L84.542,68.274C77.127,72.573 69.713,76.821 62.333,81.131C61.248,81.904 59.833,81.904 58.748,81.131C51.31,76.721 43.826,72.385 36.342,68.1C35.983,67.887 35.6,67.737 35.182,67.55L35.066,67.775L50.614,80.869L37.851,95.063L37.99,95.25C38.257,95.063 38.547,94.9 38.802,94.701C43.501,91.09 48.212,87.491 52.888,83.843C53.385,83.342 54.167,83.342 54.664,83.843C56.276,85.092 57.971,86.129 59.583,87.316C60.132,87.834 60.961,87.834 61.509,87.316C63.157,86.067 64.886,85.005 66.522,83.768C66.99,83.287 67.736,83.287 68.204,83.768C72.95,87.516 77.719,91.102 82.476,94.763C82.79,95 83.114,95.213 83.439,95.45L83.532,95.3L70.432,80.882L85.934,67.85L85.783,67.587Z" style="fill:rgb(140,35,18);"/>
        </g>
    </g>
</svg>
