<?xml version="1.0" encoding="UTF-8" standalone="no"?>
<!DOCTYPE svg PUBLIC "-//W3C//DTD SVG 1.1//EN" "http://www.w3.org/Graphics/SVG/1.1/DTD/svg11.dtd">
<svg width="100%" height="100%" viewBox="0 0 500 500" version="1.1" xmlns="http://www.w3.org/2000/svg" xmlns:xlink="http://www.w3.org/1999/xlink" xml:space="preserve" xmlns:serif="http://www.serif.com/" style="fill-rule:evenodd;clip-rule:evenodd;stroke-linejoin:round;stroke-miterlimit:2;">
    <path d="M249.995,0C111.928,0 0,111.932 0,250.005C0,355.287 65.078,445.359 157.197,482.21C154.077,453.779 156.247,426.449 162.497,400.208L187.496,292.396C183.436,279.266 180.306,264.265 180.306,249.265C180.306,214.264 197.186,189.264 223.746,189.264C242.185,189.264 255.625,202.074 255.625,226.765C255.625,234.575 254.065,243.325 250.935,253.325L239.995,289.266C237.805,296.146 236.875,302.706 236.875,308.326C236.875,333.327 255.935,347.387 280.314,347.387C323.754,347.387 354.693,302.386 354.693,243.945C354.693,178.944 312.194,137.383 249.385,137.383C179.386,137.383 135.017,183.014 135.017,246.445C135.017,272.065 142.827,295.816 158.137,312.066C153.137,320.506 147.827,322.066 139.697,322.066C114.698,322.066 90.948,286.756 90.948,238.625C90.948,155.493 157.507,89.252 250.945,89.252C349.063,89.252 410.632,157.693 410.632,242.065C410.632,326.437 350.633,390.818 285.944,390.818C260.315,390.818 237.815,379.878 222.196,360.187L209.386,412.068C202.516,438.939 192.126,464.359 175.566,488.73C199.076,496.05 224.086,500 250.005,500C388.072,500 500,388.068 500,249.995C500,111.922 388.062,0 249.995,0Z" style="fill:rgb(230,29,39);fill-rule:nonzero;"/>
</svg>
