<svg width="256" height="256" viewBox="0 0 256 256" fill="none" xmlns="http://www.w3.org/2000/svg">
<path d="M102.474 166.037L168.859 127.833L102.474 89.8154V166.037ZM28.0498 211.474C17.0166 208.505 8.41418 199.79 5.23549 189.033C0 169.19 0 127.833 0 127.833C0 127.833 0 86.4775 5.23549 66.8197C8.41418 55.8775 17.0166 47.346 28.0498 44.379C47.8712 39 127.906 39 127.906 39C127.906 39 208.129 39 227.95 44.379C239.17 47.346 247.585 55.8775 250.578 66.8197C256 86.4775 256 127.833 256 127.833C256 127.833 256 169.19 250.578 189.033C247.585 199.79 239.17 208.505 227.95 211.474C208.129 216.851 127.906 216.851 127.906 216.851C127.906 216.851 47.8712 216.851 28.0498 211.474Z" fill="#EE1D3A" style="fill:#EE1D3A;fill:color(display-p3 0.9333 0.1137 0.2275);fill-opacity:1;"/>
</svg>
